<svg xmlns="http://www.w3.org/2000/svg" width="201" height="209"><rect width="100%" height="100%" fill="none"/><path fill="none" d="M-1-1h203v211H-1z"/><path d="M117.33 115.828a5.08 5.08 0 0 0-7.218.077 5.165 5.165 0 0 0 .076 7.267l40.187 39.602a5.07 5.07 0 0 0 3.571 1.466 5.074 5.074 0 0 0 3.648-1.544 5.165 5.165 0 0 0-.076-7.268l-40.187-39.6zM81.223 93.155c.996 1.003 2.303 1.505 3.61 1.505s2.613-.502 3.61-1.505a5.164 5.164 0 0 0 0-7.267L49.957 47.143a5.08 5.08 0 0 0-7.218 0 5.164 5.164 0 0 0 0 7.267l38.484 38.745zm77.333-46.012a5.08 5.08 0 0 0-7.219 0l-107.6 108.325a5.164 5.164 0 0 0 0 7.267c.997 1.003 2.304 1.505 3.61 1.505s2.613-.502 3.61-1.505L158.556 54.411a5.165 5.165 0 0 0 0-7.268z" stroke="null" fill="#fff"/></svg>